<?xml version="1.0" encoding="UTF-8" standalone="no"?>
<!-- Created with Inkscape (http://www.inkscape.org/) -->

<svg
   id="svg5"
   version="1.1"
   viewBox="0 0 297 210"
   height="210mm"
   width="297mm"
   inkscape:version="1.1 (c68e22c387, 2021-05-23)"
   sodipodi:docname="Agriculturaltractor.svg"
   xmlns:inkscape="http://www.inkscape.org/namespaces/inkscape"
   xmlns:sodipodi="http://sodipodi.sourceforge.net/DTD/sodipodi-0.dtd"
   xmlns:xlink="http://www.w3.org/1999/xlink"
   xmlns="http://www.w3.org/2000/svg"
   xmlns:svg="http://www.w3.org/2000/svg">
  <sodipodi:namedview
     id="namedview7"
     pagecolor="#ffffff"
     bordercolor="#666666"
     borderopacity="1.0"
     inkscape:pageshadow="2"
     inkscape:pageopacity="0.0"
     inkscape:pagecheckerboard="0"
     inkscape:document-units="mm"
     showgrid="false"
     inkscape:zoom="0.65512531"
     inkscape:cx="559.43496"
     inkscape:cy="334.28719"
     inkscape:window-width="1366"
     inkscape:window-height="706"
     inkscape:window-x="-8"
     inkscape:window-y="-8"
     inkscape:window-maximized="1"
     inkscape:current-layer="layer1" />
  <defs
     id="defs2">
    <linearGradient
       inkscape:collect="always"
       id="linearGradient10036">
      <stop
         style="stop-color:#00ffff;stop-opacity:1;"
         offset="0"
         id="stop10032" />
      <stop
         style="stop-color:#ffffff;stop-opacity:1"
         offset="1"
         id="stop10034" />
    </linearGradient>
    <linearGradient
       inkscape:collect="always"
       id="linearGradient9903">
      <stop
         style="stop-color:#00ffff;stop-opacity:1;"
         offset="0"
         id="stop9899" />
      <stop
         style="stop-color:#ffffff;stop-opacity:1"
         offset="1"
         id="stop9901" />
    </linearGradient>
    <linearGradient
       inkscape:collect="always"
       xlink:href="#linearGradient9903"
       id="linearGradient9905"
       x1="141.35336"
       y1="62.19548"
       x2="171.2395"
       y2="68.253479"
       gradientUnits="userSpaceOnUse" />
    <linearGradient
       inkscape:collect="always"
       xlink:href="#linearGradient10036"
       id="linearGradient9907"
       x1="193.45218"
       y1="62.599346"
       x2="223.74219"
       y2="63.810947"
       gradientUnits="userSpaceOnUse" />
    <linearGradient
       inkscape:collect="always"
       xlink:href="#linearGradient10036"
       id="linearGradient9909"
       x1="141.35336"
       y1="62.19548"
       x2="171.2395"
       y2="68.253479"
       gradientUnits="userSpaceOnUse" />
  </defs>
  <g
     inkscape:label="Layer 1"
     inkscape:groupmode="layer"
     id="layer1">
    <path
       id="rect8620"
       style="opacity:1;fill:#ffff00;stroke:#000000;stroke-width:0.793046"
       d="m 180.72272,92.199619 73.44072,-0.453761 10.79538,9.926852 2.87754,0.056 -0.35338,-18.035158 4.87163,0.028 -0.0862,18.119158 4.20057,0.056 -0.0207,8.70529 -95.72554,0.40387 z"
       sodipodi:nodetypes="ccccccccccc" />
    <rect
       style="opacity:1;fill:#333333;stroke:#000000;stroke-width:1.11128;stroke-opacity:1"
       id="rect5351"
       width="136.0161"
       height="42.113064"
       x="56.595978"
       y="111.6609" />
    <rect
       style="opacity:1;fill:#333333;stroke:#000000;stroke-width:0.354431;stroke-opacity:1"
       id="rect5229"
       width="35.107567"
       height="16.596834"
       x="30.137564"
       y="137.17712" />
    <path
       id="rect480"
       style="opacity:1;fill:#ffff00;stroke:#000000;stroke-width:0.77189;stroke-opacity:1"
       d="m 38.721232,95.626811 v 20.842139 20.84266 h 27.802436 c 0,0 -6.840516,-19.62783 0,-20.84266 14.584304,-2.59007 103.318722,0 103.318722,0 V 95.626811 Z"
       sodipodi:nodetypes="ccccsccc" />
    <circle
       style="opacity:1;fill:#000000;stroke:#000000;stroke-width:2.30695;stroke-opacity:1"
       id="ellipse1792"
       cx="62.696156"
       cy="160.03632"
       r="25" />
    <ellipse
       style="opacity:1;fill:#ffff00;stroke:#000000;stroke-width:1.73021;stroke-opacity:1"
       id="circle1869"
       cx="62.696156"
       cy="160.03632"
       rx="18.750042"
       ry="18.750044" />
    <circle
       style="opacity:1;fill:#000000;stroke:#000000;stroke-width:4.03046;stroke-opacity:1"
       id="circle1907"
       cx="216.81142"
       cy="140.16571"
       r="43.677254" />
    <path
       id="path7847"
       style="opacity:1;fill:#000000;stroke:#000000;stroke-width:0.675001"
       d="m 170.84822,141.40894 h -39.93265 c -0.23286,-24.25692 -0.18579,-29.68124 0,-49.797356 l 59.11518,-2.68e-4 z"
       sodipodi:nodetypes="ccccc" />
    <ellipse
       style="opacity:1;fill:#ffff00;stroke:#000000;stroke-width:3.02284;stroke-opacity:1"
       id="ellipse1909"
       cx="216.81142"
       cy="140.16571"
       rx="32.758011"
       ry="32.758018" />
    <path
       id="path7404"
       style="opacity:1;fill:url(#linearGradient9909);stroke:#000000;stroke-width:0.675001;fill-opacity:1"
       d="m 166.87935,138.76317 h -30.67211 c -0.23286,-24.25692 -0.18579,-27.03547 0,-47.151586 l 49.85464,-2.68e-4 z"
       sodipodi:nodetypes="ccccc" />
    <path
       id="rect2404"
       style="opacity:1;fill:#000000;stroke:#000000;stroke-width:0.750001"
       d="m 140.80649,33.370923 h 113.35695 l 9.13846,50.891196 -9.13846,7.483739 -123.24787,-0.134274 z"
       sodipodi:nodetypes="cccccc" />
    <circle
       id="path3394"
       style="fill:#ffff00;stroke:#000000;stroke-width:0.264583"
       cx="31.984617"
       cy="61.113461"
       r="0.21565174" />
    <rect
       style="opacity:1;fill:#ffff00;stroke:#000000;stroke-width:0.74418;stroke-opacity:1"
       id="rect3927"
       width="113.88338"
       height="17.07629"
       x="140.28006"
       y="16.294632" />
    <path
       id="rect10355"
       style="opacity:1;fill:#000000;stroke:#000000;stroke-width:0.522601"
       transform="rotate(90)"
       d="m 33.370922,-140.28006 h 5.103325 v 11.35159 c 7.022429,3.32007 11.094431,1.72277 14.94307,-0.24681 l -0.403867,4.15423 -14.539203,-0.49361 h -5.103325 z"
       sodipodi:nodetypes="cccccccc" />
    <rect
       style="opacity:0.5;fill:#666666;stroke:#000000;stroke-width:0.526215;stroke-opacity:1"
       id="rect4009"
       width="113.88338"
       height="8.5381451"
       x="140.28006"
       y="24.832777" />
    <path
       id="rect4051"
       style="opacity:1;fill:url(#linearGradient9907);stroke:#000000;stroke-width:0.750001;fill-opacity:1"
       d="m 191.75651,38.867821 h 58.92138 l 7.9375,41.261937 -7.9375,8.18905 -58.92138,1.67e-4 z"
       sodipodi:nodetypes="cccccc" />
    <path
       id="path4806"
       style="opacity:1;fill:url(#linearGradient9905);fill-opacity:1;stroke:#000000;stroke-width:0.750001"
       d="m 144.13133,38.867821 h 43.04656 c 0.25873,26.952145 0.20643,27.099754 0,49.450987 l -12.74604,4.1e-5 -6.37302,2.1e-5 -3.18651,1.1e-5 -3.18651,10e-6 -25.49207,8.4e-5 z"
       sodipodi:nodetypes="ccccccccc" />
    <path
       id="rect5375"
       style="opacity:1;fill:#333333;stroke:#000000;stroke-width:0.750001"
       d="m 94.811539,29.699999 h 6.853841 V 118.3214 h -6.853841 z"
       sodipodi:nodetypes="ccccc" />
    <path
       id="rect5377"
       style="opacity:1;fill:#333333;stroke:#000000;stroke-width:0.750001"
       d="m 46.834618,104.52116 h 4.880681 l 4.880681,2.64594 v 7.13951 l -4.880681,2.64584 h -4.880681 c -1.090953,-4.14376 -2.548882,-8.28753 0,-12.43129 z"
       sodipodi:nodetypes="ccccccc" />
    <path
       id="path6033"
       style="opacity:0.5;fill:#808080;stroke:none;stroke-width:0.750001"
       d="m 46.834618,104.78585 h 4.880681 l 4.61608,2.38125 v 4.49368 c -4.719171,-0.0174 -5.423996,-0.20193 -10.443898,-0.20193 -0.383841,-2.45752 -0.370911,-4.78278 0.947137,-6.673 z"
       sodipodi:nodetypes="cccccc" />
    <rect
       style="opacity:1;fill:#333333;stroke:#000000;stroke-width:0.802191;stroke-opacity:1"
       id="rect7245"
       width="12.093336"
       height="48.881798"
       x="92.191795"
       y="44.669163" />
    <rect
       style="opacity:1;fill:#000000;stroke:none;stroke-width:0.750001;stroke-opacity:1"
       id="rect9519"
       width="4.8999195"
       height="4.3214011"
       x="272.35458"
       y="83.72155" />
    <ellipse
       style="opacity:1;fill:#000000;stroke:#000000;stroke-width:0.865102;stroke-opacity:1"
       id="ellipse14439"
       cx="62.696156"
       cy="160.03632"
       rx="9.3750219"
       ry="9.3750238" />
    <circle
       style="opacity:1;fill:#000000;stroke:#000000;stroke-width:1.51142;stroke-opacity:1"
       id="ellipse14516"
       cx="216.81142"
       cy="140.16571"
       r="16.379036" />
  </g>
</svg>
