<?xml version="1.0" encoding="UTF-8" standalone="no"?>
<!-- Created with Inkscape (http://www.inkscape.org/) -->

<svg
   xmlns:dc="http://purl.org/dc/elements/1.1/"
   xmlns:cc="http://creativecommons.org/ns#"
   xmlns:rdf="http://www.w3.org/1999/02/22-rdf-syntax-ns#"
   xmlns:svg="http://www.w3.org/2000/svg"
   xmlns="http://www.w3.org/2000/svg"
   xmlns:sodipodi="http://sodipodi.sourceforge.net/DTD/sodipodi-0.dtd"
   xmlns:inkscape="http://www.inkscape.org/namespaces/inkscape"
   width="210mm"
   height="297mm"
   viewBox="0 0 210 297"
   version="1.1"
   id="svg974"
   inkscape:version="0.92.5 (2060ec1f9f, 2020-04-08)"
   sodipodi:docname="Pisanka.svg"
   inkscape:export-filename="C:\Users\Windows 10\Documents\GitHub\matiwa\projects\graphics\basic\projects\inkscape\Krzywe.png"
   inkscape:export-xdpi="300"
   inkscape:export-ydpi="300">
  <defs
     id="defs968" />
  <sodipodi:namedview
     id="base"
     pagecolor="#ffffff"
     bordercolor="#666666"
     borderopacity="1.0"
     inkscape:pageopacity="0.0"
     inkscape:pageshadow="2"
     inkscape:zoom="0.33324901"
     inkscape:cx="528.83505"
     inkscape:cy="601.97603"
     inkscape:document-units="mm"
     inkscape:current-layer="layer1"
     showgrid="false"
     inkscape:window-width="1366"
     inkscape:window-height="705"
     inkscape:window-x="-8"
     inkscape:window-y="-8"
     inkscape:window-maximized="1" />
  <metadata
     id="metadata971">
    <rdf:RDF>
      <cc:Work
         rdf:about="">
        <dc:format>image/svg+xml</dc:format>
        <dc:type
           rdf:resource="http://purl.org/dc/dcmitype/StillImage" />
        <dc:title></dc:title>
      </cc:Work>
    </rdf:RDF>
  </metadata>
  <g
     inkscape:label="Layer 1"
     inkscape:groupmode="layer"
     id="layer1">
    <path
       style="fill:#ffffff;stroke:#000000;stroke-width:0.26458332;stroke-miterlimit:4;stroke-dasharray:none;stroke-opacity:1"
       d="m 18.948818,88.381529 c 8.764288,-21.466697 20.872043,-36.71236 34.245893,-36.712359 13.37385,10e-7 25.4816,15.245664 34.24589,36.71236 m 2.64583,7.937502 c 8.76429,21.466688 11.539279,41.216918 11.539279,66.101058 0,49.76826 -21.683299,69.47591 -48.430999,69.47591 -26.747704,0 -48.4310045,-19.70765 -48.4310055,-69.47591 0,-24.88414 2.774992,-44.63437 11.5392795,-66.101058"
       id="path1428"
       inkscape:connector-curvature="0"
       sodipodi:nodetypes="csccsssc" />
    <path
       sodipodi:nodetypes="csccccccccccssscsccccccc"
       inkscape:connector-curvature="0"
       id="path1433"
       d="m 122.69238,88.381528 c 8.76429,-21.466697 20.87205,-36.71236 34.2459,-36.712359 13.37385,1e-6 25.4816,15.245664 34.24589,36.71236 l -6.92657,-3.042709 -3.75157,7.540625 -9.61981,-16.668749 -8.77865,13.229166 -8.77865,-11.641666 -9.09064,10.583333 -11.30212,-11.641668 z M 193.83,96.319031 c 8.76429,21.466689 11.53928,41.216919 11.53928,66.101059 0,49.76826 -21.6833,69.47591 -48.431,69.47591 -26.74771,0 -48.43101,-19.70765 -48.43101,-69.47591 0,-24.88414 2.77499,-44.63437 11.53928,-66.101059 l 11.56669,-11.641667 12.62503,11.641667 9.7521,-10.583333 9.10939,11.641666 9.10938,-13.229166 10.28127,16.668742 4.08229,-7.54062 z"
       style="fill:#ffff00;stroke:#000000;stroke-width:0.26458332;stroke-miterlimit:4;stroke-dasharray:none;stroke-opacity:1" />
  </g>
</svg>
