<?xml version="1.0" encoding="UTF-8" standalone="no"?>
<!-- Created with Inkscape (http://www.inkscape.org/) -->

<svg
   xmlns:dc="http://purl.org/dc/elements/1.1/"
   xmlns:cc="http://creativecommons.org/ns#"
   xmlns:rdf="http://www.w3.org/1999/02/22-rdf-syntax-ns#"
   xmlns:svg="http://www.w3.org/2000/svg"
   xmlns="http://www.w3.org/2000/svg"
   xmlns:sodipodi="http://sodipodi.sourceforge.net/DTD/sodipodi-0.dtd"
   xmlns:inkscape="http://www.inkscape.org/namespaces/inkscape"
   width="297mm"
   height="210mm"
   viewBox="0 0 297 210"
   version="1.1"
   id="svg974"
   inkscape:version="0.92.5 (2060ec1f9f, 2020-04-08)"
   sodipodi:docname="StudiaKrzywe.svg"
   inkscape:export-filename="C:\Users\Windows 10\Documents\GitHub\matiwa\projects\graphics\basic\projects\inkscape\StudiaKrzywe.png"
   inkscape:export-xdpi="300"
   inkscape:export-ydpi="300">
  <defs
     id="defs968" />
  <sodipodi:namedview
     id="base"
     pagecolor="#ffffff"
     bordercolor="#666666"
     borderopacity="1.0"
     inkscape:pageopacity="0.0"
     inkscape:pageshadow="2"
     inkscape:zoom="0.47128527"
     inkscape:cx="711.31476"
     inkscape:cy="396.85039"
     inkscape:document-units="mm"
     inkscape:current-layer="layer1"
     showgrid="false"
     inkscape:window-width="1366"
     inkscape:window-height="705"
     inkscape:window-x="-8"
     inkscape:window-y="-8"
     inkscape:window-maximized="1" />
  <metadata
     id="metadata971">
    <rdf:RDF>
      <cc:Work
         rdf:about="">
        <dc:format>image/svg+xml</dc:format>
        <dc:type
           rdf:resource="http://purl.org/dc/dcmitype/StillImage" />
        <dc:title></dc:title>
      </cc:Work>
    </rdf:RDF>
  </metadata>
  <g
     inkscape:label="Layer 1"
     inkscape:groupmode="layer"
     id="layer1"
     transform="translate(0,-87)">
    <g
       aria-label="Studia"
       style="font-style:normal;font-variant:normal;font-weight:normal;font-stretch:normal;font-size:51.10877991px;line-height:1.25;font-family:Gigi;-inkscape-font-specification:Gigi;letter-spacing:0px;word-spacing:0px;fill:#000000;fill-opacity:1;stroke:none;stroke-width:1.36898518"
       id="text1267"
       transform="matrix(1.8354141,0,0,1.8354141,-135.13593,-181.37713)">
      <path
         d="m 107.74557,208.75281 q 0.69875,-0.59894 1.02317,-1.22282 0.34938,-0.64884 0.34938,-1.42246 0,-1.84671 -1.42246,-3.16935 -1.42246,-1.34759 -3.39394,-1.34759 -1.87166,0 -3.11944,1.27273 -1.222814,1.27273 -1.222814,3.24421 0,3.24421 2.670234,5.66489 2.69519,2.39572 6.48842,2.39572 3.61854,0 6.164,-2.32086 2.57041,-2.32086 2.57041,-5.59002 0,-2.9697 -1.69697,-4.86632 -1.69697,-1.89661 -7.287,-4.19251 -4.61676,-1.89662 -6.31373,-3.74332 -1.67201,-1.87166 -1.67201,-4.64172 0,-2.67023 1.97148,-4.46702 1.97148,-1.82175 4.94118,-1.82175 1.54724,0 4.06774,1.27273 2.54546,1.24777 3.6435,1.24777 1.04813,0 2.37077,-0.64884 1.32263,-0.64884 2.84492,-1.92157 l 0.24955,0.42424 q -2.14617,1.69697 -4.01783,2.57041 -1.87166,0.84849 -3.39394,0.84849 -1.72193,0 -4.21747,-1.42246 -2.49555,-1.44742 -3.49377,-1.44742 -1.52228,0 -2.72014,1.29768 -1.17291,1.27273 -1.17291,2.99466 0,3.21925 7.81106,6.18895 0.94831,0.37433 1.44742,0.57398 4.5918,1.79679 6.46346,3.96792 1.87166,2.17112 1.87166,5.59002 0,4.74154 -3.44385,7.86097 -3.4189,3.11943 -8.53477,3.11943 -4.31729,0 -7.06239,-2.02139 -2.745105,-2.02139 -2.745105,-5.14083 0,-2.77005 2.245995,-4.86631 2.27094,-2.12121 5.2656,-2.12121 2.47059,0 4.16756,1.29768 1.72193,1.27273 1.72193,3.04457 0,1.02317 -0.72371,1.99643 -0.69875,0.97327 -1.5722,1.22282 z"
         style="font-style:normal;font-variant:normal;font-weight:normal;font-stretch:normal;font-family:'TypoUpright BT';-inkscape-font-specification:'TypoUpright BT';stroke-width:1.36898518"
         id="path1269"
         inkscape:connector-curvature="0" />
      <path
         d="m 125.96305,201.96492 -2.64527,1.17291 v -0.52407 l 2.64527,-1.1729 -2.11667,-7.54675 c -0.19983,1.09906 4.32235,2.15351 5.9099,0.0351 v 0.29947 c -0.51575,0.29947 -0.86512,0.59061 -1.04813,0.87344 -0.16637,0.28283 -0.24955,0.70707 -0.24955,1.27273 v 3.99287 l 5.56052,-7.87228 -2.11667,6.89902 -3.44385,1.44741 v 11.13014 c 0,0.88176 0.0998,1.47237 0.29947,1.77184 0.19964,0.28283 0.54901,0.42424 1.04812,0.42424 1.06477,0 2.2959,-0.65716 3.69341,-1.97148 1.39751,-1.31432 2.67024,-3.0612 3.81819,-5.24065 l 0.4492,0.17469 c -1.33096,2.51218 -2.83661,4.46702 -4.51694,5.86453 -1.68033,1.39751 -3.36067,2.09626 -5.041,2.09626 -0.83185,0 -1.41415,-0.18301 -1.74689,-0.54902 -0.33274,-0.36601 -0.49911,-1.13963 -0.49911,-2.32086 z"
         style="font-style:normal;font-variant:normal;font-weight:normal;font-stretch:normal;font-family:'TypoUpright BT';-inkscape-font-specification:'TypoUpright BT';stroke-width:1.36898518"
         id="path1271"
         inkscape:connector-curvature="0"
         sodipodi:nodetypes="ccccccccsccccscssccssssc" />
      <path
         d="m 144.65469,199.46826 1.65954,4.82999 1.65954,-5.75334 v 5.71591 c -0.29947,0.24955 -0.52407,0.59893 -0.6738,1.04813 -0.13309,0.4492 -0.19964,1.03149 -0.19964,1.74688 v 5.01605 c 0,0.61557 0.0749,1.07308 0.2246,1.37255 0.16637,0.28283 0.41592,0.42424 0.74866,0.42424 0.89839,0 1.98811,-0.6322 3.26916,-1.89661 1.29769,-1.26441 2.49555,-2.93643 3.59359,-5.01605 l 0.4492,0.17469 c -1.26441,2.41236 -2.7451,4.34225 -4.44207,5.78967 -1.68033,1.44741 -3.25253,2.17112 -4.71658,2.17112 -0.4492,0 -0.82353,-0.17469 -1.123,-0.52406 -0.29947,-0.34938 -0.4492,-0.8069 -0.4492,-1.37255 v -1.84671 c -1.09804,1.23114 -2.12953,2.16281 -3.09447,2.79501 -0.96495,0.63221 -1.82175,0.94831 -2.57042,0.94831 -0.64884,0 -1.1729,-0.18301 -1.57219,-0.54902 -0.38265,-0.36601 -0.57398,-0.84849 -0.57398,-1.44742 v -13.6767 l 1.52228,4.85495 1.52229,-5.72839 v 5.666 c -0.18301,0.16637 -0.32442,0.34106 -0.42424,0.52407 -0.0832,0.18301 -0.12478,0.39929 -0.12478,0.64884 v 0.14973 6.78789 c 0,0.54902 0.0915,0.94831 0.27451,1.19786 0.18301,0.23291 0.48247,0.34937 0.8984,0.34937 0.44919,0 0.98158,-0.2246 1.59715,-0.67379 0.61557,-0.46584 1.46405,-1.28105 2.54545,-2.44564 z"
         style="font-style:normal;font-variant:normal;font-weight:normal;font-stretch:normal;font-family:'TypoUpright BT';-inkscape-font-specification:'TypoUpright BT';stroke-width:1.36898518"
         id="path1273"
         inkscape:connector-curvature="0"
         sodipodi:nodetypes="cccccsscsccccscsccscscccccscscsccc" />
      <path
         d="m 161.74918,206.05762 c -0.43256,-0.36601 -0.84848,-0.62389 -1.24777,-0.77362 -0.38265,-0.16637 -0.78194,-0.24956 -1.19786,-0.24956 -0.94831,0 -1.75521,0.45752 -2.42068,1.37255 -0.66548,0.8984 -0.99822,2.03803 -0.99822,3.4189 0,1.16459 0.24955,2.07962 0.74866,2.7451 0.49911,0.66548 1.18123,0.99822 2.04635,0.99822 0.51575,0 1.03981,-0.18301 1.57219,-0.54902 0.53239,-0.36601 1.0315,-0.88176 1.49733,-1.54724 z m -0.52917,-15.00389 0.57625,2.7258 3.22209,-3.6242 v 3.57429 c -0.28283,0.23292 -0.4908,0.57398 -0.62389,1.02317 -0.11646,0.43256 -0.17469,1.03149 -0.17469,1.7968 v 15.27274 c 0,0.88176 0.0582,1.48069 0.17469,1.79679 0.13309,0.29947 0.35769,0.4492 0.6738,0.4492 0.98158,0 2.14617,-0.64884 3.49376,-1.94653 1.34759,-1.31432 2.58705,-3.03625 3.71836,-5.16578 l 0.42425,0.17469 c -1.24777,2.36245 -2.72015,4.28402 -4.41712,5.76471 -1.69697,1.46405 -3.1943,2.19608 -4.49198,2.19608 -0.63221,0 -1.11468,-0.2246 -1.44742,-0.6738 -0.33274,-0.46583 -0.53238,-1.1729 -0.59893,-2.12121 -0.81521,0.93167 -1.61379,1.63043 -2.39572,2.09626 -0.7653,0.46583 -1.5306,0.69875 -2.29591,0.69875 -1.0814,0 -1.95484,-0.37433 -2.62032,-1.12299 -0.66548,-0.74867 -0.99822,-1.73857 -0.99822,-2.9697 0,-1.6637 0.61557,-3.15271 1.84671,-4.46703 1.23113,-1.31432 2.60368,-1.97148 4.11765,-1.97148 0.41592,0 0.81521,0.0749 1.19786,0.2246 0.39929,0.13309 0.78194,0.34937 1.14795,0.64884 z"
         style="font-style:normal;font-variant:normal;font-weight:normal;font-stretch:normal;font-family:'TypoUpright BT';-inkscape-font-specification:'TypoUpright BT';stroke-width:1.36898518"
         id="path1275"
         inkscape:connector-curvature="0"
         sodipodi:nodetypes="ccscscsccccccccsscsccccscccscscsccc" />
      <path
         d="m 174.77593,210.94889 c 0,1.23113 0.0998,2.0713 0.29947,2.5205 0.21628,0.43256 0.58229,0.64884 1.09804,0.64884 1.04813,0 2.27094,-0.65716 3.66845,-1.97148 1.39751,-1.31432 2.66192,-3.04457 3.79323,-5.19074 l 0.4492,0.17469 c -1.28105,2.429 -2.77838,4.36721 -4.49199,5.81462 -1.71361,1.43078 -3.33571,2.14617 -4.86631,2.14617 -0.71539,0 -1.30601,-0.25787 -1.77184,-0.77362 -0.4492,-0.53238 -0.6738,-1.23113 -0.6738,-2.09626 v -7.31195 l 3.74332,-1.07308 v 0.37433 c -0.49911,0.26619 -0.83185,0.52407 -0.99822,0.77362 -0.16637,0.24955 -0.24955,0.69043 -0.24955,1.32264 z m -2.54546,-13.9002 c 0,-0.38265 -2.58488,-5.14629 0.4492,-4.72734 0,0 0.64052,3.25497 1.02317,3.25497 0.41593,0 -1.02317,-3.25497 1.07309,-3.25497 2.45926,0 0.47415,4.32805 0.47415,4.72734 0,0.38265 -0.15805,0.72371 -0.47415,1.02318 -0.3161,0.29947 -0.6738,0.4492 -1.07309,0.4492 -0.34937,0 -0.68211,-0.14973 -0.99821,-0.4492 -0.31611,-0.31611 -0.47416,-0.65717 -0.47416,-1.02318 z"
         style="font-style:normal;font-variant:normal;font-weight:normal;font-stretch:normal;font-family:'TypoUpright BT';-inkscape-font-specification:'TypoUpright BT';stroke-width:1.36898518"
         id="path1277"
         inkscape:connector-curvature="0"
         sodipodi:nodetypes="scsscccscsccccssssssssscs" />
      <path
         d="m 190.39805,207.92927 c 0,-0.93167 -0.20796,-1.64705 -0.62389,-2.14616 -0.41592,-0.49911 -1.02317,-0.74867 -1.82175,-0.74867 -0.94831,0 -1.7552,0.45752 -2.42067,1.37255 -0.66548,0.8984 -0.99822,2.03803 -0.99822,3.4189 0,1.14795 0.25787,2.07131 0.77362,2.77006 0.51575,0.68211 1.18954,1.02317 2.02139,1.02317 0.58229,0 1.14795,-0.19133 1.69697,-0.57398 0.54902,-0.38265 1.00654,-0.90671 1.37255,-1.57219 z m 2.21083,-5.15102 1.5875,-0.10493 c -0.29946,0.23292 -1.03659,2.1282 -1.15305,2.51085 -0.11646,0.36601 -0.17469,0.9899 -0.17469,1.87166 v 4.7665 c 0,0.88176 0.0582,1.48069 0.17469,1.79679 0.13309,0.29947 0.35769,0.4492 0.6738,0.4492 0.98158,0 2.14617,-0.64884 3.49376,-1.94653 1.34759,-1.31432 2.58705,-3.03625 3.71836,-5.16578 l 0.42425,0.17469 c -1.26441,2.36245 -2.74511,4.28402 -4.44208,5.76471 -1.68033,1.46405 -3.16934,2.19608 -4.46702,2.19608 -0.61557,0 -1.10636,-0.24124 -1.47237,-0.72371 -0.34938,-0.49911 -0.54071,-1.18954 -0.57398,-2.0713 -0.64884,0.93167 -1.37255,1.63043 -2.17113,2.09626 -0.78193,0.46583 -1.6221,0.69875 -2.5205,0.69875 -1.0814,0 -1.95484,-0.37433 -2.62032,-1.12299 -0.66548,-0.74867 -0.99822,-1.73857 -0.99822,-2.9697 0,-1.6637 0.61557,-3.15271 1.84671,-4.46703 1.23113,-1.31432 2.60368,-1.97148 4.11765,-1.97148 0.44919,0 0.90671,0.0749 1.37255,0.2246 0.48247,0.14973 2.02649,3.34458 2.02649,3.34458 z"
         style="font-style:normal;font-variant:normal;font-weight:normal;font-stretch:normal;font-family:'TypoUpright BT';-inkscape-font-specification:'TypoUpright BT';stroke-width:1.36898518"
         id="path1279"
         inkscape:connector-curvature="0"
         sodipodi:nodetypes="scscscsccscccsscsccccscccscscsccc" />
    </g>
  </g>
</svg>
