<?xml version="1.0" encoding="UTF-8" standalone="no"?>
<!-- Created with Inkscape (http://www.inkscape.org/) -->

<svg
   xmlns:dc="http://purl.org/dc/elements/1.1/"
   xmlns:cc="http://creativecommons.org/ns#"
   xmlns:rdf="http://www.w3.org/1999/02/22-rdf-syntax-ns#"
   xmlns:svg="http://www.w3.org/2000/svg"
   xmlns="http://www.w3.org/2000/svg"
   xmlns:sodipodi="http://sodipodi.sourceforge.net/DTD/sodipodi-0.dtd"
   xmlns:inkscape="http://www.inkscape.org/namespaces/inkscape"
   width="297mm"
   height="210mm"
   viewBox="0 0 297 210"
   version="1.1"
   id="svg974"
   inkscape:version="0.92.5 (2060ec1f9f, 2020-04-08)"
   sodipodi:docname="ZamekDrzwi.svg"
   inkscape:export-filename="C:\Users\Windows 10\Documents\GitHub\matiwa\projects\graphics\basic\projects\inkscape\Choinka.png"
   inkscape:export-xdpi="300"
   inkscape:export-ydpi="300">
  <defs
     id="defs968" />
  <sodipodi:namedview
     id="base"
     pagecolor="#ffffff"
     bordercolor="#666666"
     borderopacity="1.0"
     inkscape:pageopacity="0.0"
     inkscape:pageshadow="2"
     inkscape:zoom="0.66649802"
     inkscape:cx="679.0566"
     inkscape:cy="396.85039"
     inkscape:document-units="mm"
     inkscape:current-layer="layer1"
     showgrid="false"
     inkscape:window-width="1366"
     inkscape:window-height="705"
     inkscape:window-x="-8"
     inkscape:window-y="-8"
     inkscape:window-maximized="1" />
  <metadata
     id="metadata971">
    <rdf:RDF>
      <cc:Work
         rdf:about="">
        <dc:format>image/svg+xml</dc:format>
        <dc:type
           rdf:resource="http://purl.org/dc/dcmitype/StillImage" />
        <dc:title></dc:title>
      </cc:Work>
    </rdf:RDF>
  </metadata>
  <g
     inkscape:label="Layer 1"
     inkscape:groupmode="layer"
     id="layer1"
     transform="translate(0,-87)">
    <path
       style="fill:#800000;stroke:#000000;stroke-width:0.26458332;stroke-miterlimit:4;stroke-dasharray:none;stroke-opacity:1"
       d="m 121.10891,134.23996 c -5.93796,0 -10.71873,4.78077 -10.71873,10.71872 v 94.08315 c 0,5.93796 4.78077,10.71821 10.71873,10.71821 h 54.78218 c 5.93796,0 10.71873,-4.78025 10.71873,-10.71821 v -94.08315 c 0,-5.93795 -4.78077,-10.71872 -10.71873,-10.71872 z M 148.5,154.86712 a 20.047258,20.047258 0 0 1 20.04736,20.04684 20.047258,20.047258 0 0 1 -12.4163,18.52084 c 8.36198,14.47104 20.58919,35.659 20.57859,35.6774 -0.0159,0.0276 -56.4034,0.0276 -56.41929,0 -0.0106,-0.0184 12.21247,-21.19963 20.57445,-35.67069 A 20.047258,20.047258 0 0 1 128.45265,174.91396 20.047258,20.047258 0 0 1 148.5,154.86712 Z"
       id="rect1201"
       inkscape:connector-curvature="0" />
  </g>
</svg>
